<?xml version="1.0" encoding="utf-8"?>
<!-- Generator: Adobe Illustrator 19.1.0, SVG Export Plug-In . SVG Version: 6.00 Build 0)  -->
<svg version="1.1" baseProfile="basic" id="Layer_1"
	 xmlns="http://www.w3.org/2000/svg" xmlns:xlink="http://www.w3.org/1999/xlink" x="0px" y="0px" viewBox="0 0 432 288"
	 xml:space="preserve">
<path fill="#FFFFFF" stroke="#000000" stroke-miterlimit="10" d="M4-46.8L12.7-27c0.8,1.7,2.6,2.8,4.4,2.6l21.4-2.3
	c3.7-0.4,6.2,3.8,4,6.9L29.7-2.6c-1.1,1.5-1.1,3.6,0,5.1l12.7,17.4c2.2,3-0.2,7.3-4,6.9l-21.4-2.3c-1.9-0.2-3.7,0.8-4.4,2.6L4,46.8
	c-1.5,3.4-6.4,3.4-7.9,0L-12.7,27c-0.8-1.7-2.6-2.8-4.4-2.6l-21.4,2.3c-3.7,0.4-6.2-3.8-4-6.9l12.7-17.4c1.1-1.5,1.1-3.6,0-5.1
	l-12.7-17.4c-2.2-3,0.2-7.3,4-6.9l21.4,2.3c1.9,0.2,3.7-0.8,4.4-2.6L-4-46.8C-2.4-50.2,2.4-50.2,4-46.8z"/>
<path fill="none" stroke="#000000" stroke-miterlimit="10" d="M3.5-46.3l3.1,22.4c0.4,2.7,3.5,3.9,5.6,2.3l18-13.6
	c3.3-2.5,7.4,1.7,4.9,4.9l-13.6,18C20-10.1,21.3-7,23.9-6.6l22.4,3.1c4,0.6,4,6.4,0,7L23.9,6.6c-2.7,0.4-3.9,3.5-2.3,5.6l13.6,18
	c2.5,3.3-1.7,7.4-4.9,4.9l-18-13.6C10.1,20,7,21.3,6.6,23.9L3.5,46.3c-0.6,4-6.4,4-7,0l-3.1-22.4c-0.4-2.7-3.5-3.9-5.6-2.3l-18,13.6
	c-3.3,2.5-7.4-1.7-4.9-4.9l13.6-18c1.6-2.1,0.3-5.2-2.3-5.6l-22.4-3.1c-4-0.6-4-6.4,0-7l22.4-3.1c2.7-0.4,3.9-3.5,2.3-5.6l-13.6-18
	c-2.5-3.3,1.7-7.4,4.9-4.9l18,13.6c2.1,1.6,5.2,0.3,5.6-2.3l3.1-22.4C-2.9-50.3,2.9-50.3,3.5-46.3z"/>
</svg>
