<?xml version="1.0" encoding="utf-8"?>
<!-- Generator: Adobe Illustrator 19.1.0, SVG Export Plug-In . SVG Version: 6.00 Build 0)  -->
<svg version="1.1" baseProfile="basic" id="Layer_1"
	 xmlns="http://www.w3.org/2000/svg" xmlns:xlink="http://www.w3.org/1999/xlink" x="0px" y="0px" viewBox="0 0 432 288"
	 xml:space="preserve">
<path fill="#FFFFFF" stroke="#000000" stroke-miterlimit="10" d="M4-46.8L12.7-27c0.8,1.7,2.6,2.8,4.4,2.6l21.4-2.3
	c3.7-0.4,6.2,3.8,4,6.9L29.7-2.6c-1.1,1.5-1.1,3.6,0,5.1l12.7,17.4c2.2,3-0.2,7.3-4,6.9l-21.4-2.3c-1.9-0.2-3.7,0.8-4.4,2.6L4,46.8
	c-1.5,3.4-6.4,3.4-7.9,0L-12.7,27c-0.8-1.7-2.6-2.8-4.4-2.6l-21.4,2.3c-3.7,0.4-6.2-3.8-4-6.9l12.7-17.4c1.1-1.5,1.1-3.6,0-5.1
	l-12.7-17.4c-2.2-3,0.2-7.3,4-6.9l21.4,2.3c1.9,0.2,3.7-0.8,4.4-2.6L-4-46.8C-2.4-50.2,2.4-50.2,4-46.8z"/>
</svg>
